<?xml version="1.0" encoding="UTF-8"?>
<svg id="_레이어_2" data-name="레이어 2" xmlns="http://www.w3.org/2000/svg" viewBox="0 0 89.37 44.69">
  <g id="_레이어_1-2" data-name="레이어 1">
    <g>
      <path d="M11.41,0c1.63.76,10.53,18.41,11.4,17.81,3.4-6.04,6.92-12.08,10.79-17.81h11.72v44.69h-11.88v-22.19c-.66.28-1,1.03-1.38,1.59-1.3,1.93-7.65,13.43-8.62,13.87-.58.26-1.3.29-1.87,0-3.42-5-6.17-10.51-9.68-15.47v22.19H0V0h11.41Z"/>
      <polygon points="59.69 0 67.19 15.31 75 0 89.37 0 73.75 29.22 73.75 44.69 60.94 44.69 60.94 29.22 45.31 0 59.69 0"/>
    </g>
  </g>
</svg>